<svg width="14" height="13" viewBox="0 0 14 13" fill="none" xmlns="http://www.w3.org/2000/svg" class="mr-2"><path fill-rule="evenodd" clip-rule="evenodd" d="M7.00156 12.8996C8.69895 12.8996 10.3268 12.2253 11.527 11.0251C12.7273 9.82486 13.4016 8.19699 13.4016 6.49961C13.4016 4.80222 12.7273 3.17436 11.527 1.97413C10.3268 0.773893 8.69895 0.0996094 7.00156 0.0996094C5.30418 0.0996094 3.67631 0.773893 2.47608 1.97413C1.27585 3.17436 0.601563 4.80222 0.601562 6.49961C0.601563 8.19699 1.27585 9.82486 2.47608 11.0251C3.67631 12.2253 5.30418 12.8996 7.00156 12.8996ZM7.80156 4.09961C7.80156 3.88744 7.71728 3.68395 7.56725 3.53392C7.41722 3.38389 7.21374 3.29961 7.00156 3.29961C6.78939 3.29961 6.58591 3.38389 6.43588 3.53392C6.28585 3.68395 6.20156 3.88744 6.20156 4.09961V5.69961H4.60156C4.38939 5.69961 4.18591 5.78389 4.03588 5.93392C3.88585 6.08395 3.80156 6.28744 3.80156 6.49961C3.80156 6.71178 3.88585 6.91527 4.03588 7.06529C4.18591 7.21532 4.38939 7.29961 4.60156 7.29961H6.20156V8.89961C6.20156 9.11178 6.28585 9.31526 6.43588 9.46529C6.58591 9.61532 6.78939 9.69961 7.00156 9.69961C7.21374 9.69961 7.41722 9.61532 7.56725 9.46529C7.71728 9.31526 7.80156 9.11178 7.80156 8.89961V7.29961H9.40156C9.61374 7.29961 9.81722 7.21532 9.96725 7.06529C10.1173 6.91527 10.2016 6.71178 10.2016 6.49961C10.2016 6.28744 10.1173 6.08395 9.96725 5.93392C9.81722 5.78389 9.61374 5.69961 9.40156 5.69961H7.80156V4.09961Z" fill="#1F2A37"></path></svg>