<svg width="20" height="20" viewBox="0 0 20 20" fill="none" xmlns="http://www.w3.org/2000/svg"><path fill-rule="evenodd" clip-rule="evenodd" d="M5.12023 2.14427C5.89214 2.08264 6.62493 1.77903 7.21423 1.27667C7.87983 0.709779 8.72554 0.398438 9.59983 0.398438C10.4741 0.398438 11.3198 0.709779 11.9854 1.27667C12.5747 1.77903 13.3075 2.08264 14.0794 2.14427C14.9511 2.21394 15.7695 2.59182 16.3879 3.21019C17.0063 3.82855 17.3842 4.64695 17.4538 5.51867C17.515 6.29027 17.8186 7.02347 18.3214 7.61267C18.8883 8.27826 19.1997 9.12398 19.1997 9.99827C19.1997 10.8726 18.8883 11.7183 18.3214 12.3839C17.8191 12.9732 17.5155 13.706 17.4538 14.4779C17.3842 15.3496 17.0063 16.168 16.3879 16.7864C15.7695 17.4047 14.9511 17.7826 14.0794 17.8523C13.3075 17.9139 12.5747 18.2175 11.9854 18.7199C11.3198 19.2868 10.4741 19.5981 9.59983 19.5981C8.72554 19.5981 7.87983 19.2868 7.21423 18.7199C6.62493 18.2175 5.89214 17.9139 5.12023 17.8523C4.24851 17.7826 3.43011 17.4047 2.81175 16.7864C2.19339 16.168 1.8155 15.3496 1.74583 14.4779C1.6842 13.706 1.38059 12.9732 0.878232 12.3839C0.311341 11.7183 0 10.8726 0 9.99827C0 9.12398 0.311341 8.27826 0.878232 7.61267C1.38059 7.02336 1.6842 6.29058 1.74583 5.51867C1.8155 4.64695 2.19339 3.82855 2.81175 3.21019C3.43011 2.59182 4.24851 2.21394 5.12023 2.14427ZM14.0482 8.44667C14.2668 8.22035 14.3878 7.91722 14.385 7.60259C14.3823 7.28795 14.2561 6.98698 14.0336 6.76449C13.8111 6.542 13.5101 6.41579 13.1955 6.41306C12.8809 6.41033 12.5778 6.53128 12.3514 6.74987L8.39983 10.7015L6.84823 9.14987C6.62191 8.93128 6.31879 8.81033 6.00415 8.81306C5.68951 8.81579 5.38854 8.942 5.16605 9.16449C4.94356 9.38698 4.81736 9.68795 4.81462 10.0026C4.81189 10.3172 4.93284 10.6203 5.15143 10.8467L7.55143 13.2467C7.77646 13.4716 8.08163 13.598 8.39983 13.598C8.71803 13.598 9.0232 13.4716 9.24823 13.2467L14.0482 8.44667Z" fill="#4B5563"></path></svg>